<?xml version="1.0" encoding="UTF-8"?>
<svg xmlns="http://www.w3.org/2000/svg" xmlns:xlink="http://www.w3.org/1999/xlink" width="258px" height="91px" viewBox="0 0 258 91" version="1.1">
<g id="surface1">
<path style=" stroke:none;fill-rule:evenodd;fill:rgb(0%,58.431375%,25.098041%);fill-opacity:1;" d="M 35.746094 63.6875 C 39.6875 63.6875 42.910156 60.335938 42.910156 56.179688 C 42.910156 52.019531 39.710938 48.667969 35.746094 48.667969 C 31.777344 48.667969 28.582031 52.019531 28.582031 56.179688 C 28.582031 60.335938 31.777344 63.6875 35.746094 63.6875 "/>
<path style=" stroke:none;fill-rule:evenodd;fill:rgb(0%,58.431375%,25.098041%);fill-opacity:1;" d="M 216.628906 68.492188 C 220.246094 68.492188 223.195312 65.425781 223.195312 61.609375 C 223.195312 57.789062 220.273438 54.722656 216.628906 54.722656 C 212.984375 54.722656 210.058594 57.789062 210.058594 61.609375 C 210.058594 65.425781 212.984375 68.492188 216.628906 68.492188 "/>
<path style=" stroke:none;fill-rule:evenodd;fill:rgb(100%,100%,100%);fill-opacity:1;" d="M 22.878906 88.210938 L 22.929688 89.769531 L 23.996094 88.652344 L 22.855469 88.183594 Z M 19.210938 88.003906 L 20.179688 85.949219 C 20.277344 85.769531 20.300781 85.640625 20.277344 85.5625 C 20.277344 85.484375 20.203125 85.40625 20.078125 85.351562 L 20.128906 85.25 L 21.492188 85.949219 L 21.441406 86.054688 C 21.441406 86.054688 21.21875 86.003906 21.144531 86.027344 C 21.09375 86.027344 21.019531 86.160156 20.921875 86.339844 L 20.203125 87.875 C 20.105469 88.054688 20.078125 88.183594 20.105469 88.261719 C 20.105469 88.339844 20.179688 88.417969 20.300781 88.472656 L 20.253906 88.574219 L 19.210938 88.027344 Z M 18.988281 89.457031 C 18.988281 89.457031 18.789062 89.300781 18.765625 89.171875 C 18.714844 89.042969 18.738281 88.914062 18.765625 88.808594 C 18.816406 88.679688 18.914062 88.601562 19.039062 88.574219 C 19.160156 88.523438 19.285156 88.550781 19.382812 88.574219 C 19.507812 88.625 19.582031 88.730469 19.609375 88.859375 C 19.65625 88.992188 19.632812 89.09375 19.609375 89.222656 C 19.558594 89.355469 19.460938 89.433594 19.335938 89.457031 C 19.210938 89.484375 19.085938 89.484375 18.988281 89.457031 Z M 17.453125 86.914062 L 17.796875 86.339844 C 17.5 86.496094 17.253906 86.574219 17.078125 86.574219 C 16.90625 86.574219 16.78125 86.546875 16.65625 86.46875 C 16.558594 86.417969 16.507812 86.339844 16.484375 86.238281 C 16.484375 86.132812 16.484375 86.027344 16.558594 85.925781 C 16.632812 85.820312 16.707031 85.742188 16.808594 85.71875 C 16.90625 85.691406 16.980469 85.71875 17.054688 85.742188 C 17.152344 85.796875 17.203125 85.871094 17.226562 85.976562 C 17.253906 86.082031 17.277344 86.132812 17.277344 86.160156 C 17.277344 86.160156 17.300781 86.210938 17.328125 86.210938 C 17.375 86.238281 17.425781 86.261719 17.5 86.238281 C 17.601562 86.238281 17.699219 86.160156 17.796875 86.082031 C 17.945312 85.949219 18.09375 85.769531 18.21875 85.5625 L 18.566406 84.988281 L 18.664062 84.832031 C 18.664062 84.832031 18.765625 84.679688 18.765625 84.625 C 18.765625 84.574219 18.765625 84.523438 18.738281 84.46875 C 18.714844 84.417969 18.664062 84.367188 18.566406 84.289062 L 18.617188 84.183594 L 19.878906 85.042969 L 19.832031 85.144531 C 19.832031 85.144531 19.632812 85.066406 19.558594 85.09375 C 19.484375 85.121094 19.382812 85.25 19.261719 85.457031 L 18.441406 86.808594 C 18.367188 86.9375 18.320312 87.042969 18.292969 87.09375 C 18.292969 87.144531 18.292969 87.199219 18.292969 87.25 C 18.292969 87.300781 18.367188 87.355469 18.441406 87.40625 L 18.394531 87.507812 L 17.425781 86.859375 Z M 10.90625 83.429688 L 11.800781 82.3125 L 11.898438 82.390625 C 11.726562 82.753906 11.675781 83.066406 11.726562 83.40625 C 11.773438 83.714844 11.921875 83.976562 12.144531 84.183594 C 12.34375 84.339844 12.566406 84.445312 12.816406 84.46875 C 13.0625 84.46875 13.3125 84.46875 13.535156 84.3125 C 13.832031 84.160156 14.078125 83.925781 14.328125 83.636719 C 14.550781 83.351562 14.722656 83.042969 14.847656 82.753906 C 14.972656 82.46875 14.996094 82.183594 14.949219 81.925781 C 14.898438 81.664062 14.75 81.429688 14.527344 81.25 C 14.328125 81.066406 14.128906 80.960938 13.882812 80.910156 C 13.660156 80.859375 13.359375 80.859375 13.015625 80.910156 L 13.238281 80.625 C 13.558594 80.597656 13.855469 80.625 14.105469 80.675781 C 14.351562 80.753906 14.601562 80.910156 14.875 81.117188 C 15.195312 81.40625 15.441406 81.742188 15.59375 82.078125 C 15.742188 82.445312 15.765625 82.808594 15.714844 83.195312 C 15.640625 83.585938 15.492188 83.925781 15.269531 84.210938 C 15.023438 84.523438 14.722656 84.753906 14.328125 84.886719 C 13.957031 85.015625 13.585938 85.066406 13.1875 84.988281 C 12.816406 84.910156 12.46875 84.753906 12.171875 84.496094 C 11.949219 84.3125 11.773438 84.054688 11.601562 83.742188 C 11.5 83.5625 11.453125 83.457031 11.402344 83.429688 C 11.351562 83.378906 11.304688 83.378906 11.230469 83.378906 C 11.15625 83.378906 11.105469 83.429688 11.007812 83.507812 Z M 10.386719 80.597656 C 10.386719 80.597656 10.535156 80.703125 10.660156 80.703125 C 10.757812 80.703125 10.90625 80.625 11.082031 80.496094 C 11.253906 80.339844 11.5 80.132812 11.773438 79.84375 C 11.921875 79.691406 12.046875 79.535156 12.171875 79.378906 C 12.246094 79.246094 12.296875 79.144531 12.296875 79.039062 C 12.296875 78.9375 12.269531 78.859375 12.195312 78.78125 C 12.144531 78.703125 12.070312 78.675781 11.996094 78.675781 C 11.898438 78.675781 11.800781 78.675781 11.699219 78.753906 C 11.527344 78.859375 11.253906 79.117188 10.832031 79.535156 C 10.585938 79.769531 10.4375 79.949219 10.363281 80.078125 C 10.289062 80.210938 10.261719 80.3125 10.289062 80.390625 C 10.289062 80.46875 10.3125 80.519531 10.386719 80.597656 Z M 10.238281 80.753906 C 10.0625 80.574219 9.964844 80.363281 9.914062 80.105469 C 9.867188 79.871094 9.890625 79.613281 9.964844 79.351562 C 10.0625 79.09375 10.1875 78.882812 10.386719 78.675781 C 10.660156 78.390625 10.980469 78.234375 11.304688 78.183594 C 11.699219 78.132812 12.046875 78.261719 12.34375 78.597656 C 12.640625 78.910156 12.742188 79.246094 12.691406 79.636719 C 12.640625 80.027344 12.46875 80.339844 12.195312 80.625 C 11.898438 80.910156 11.578125 81.066406 11.203125 81.117188 C 10.832031 81.171875 10.511719 81.039062 10.238281 80.730469 Z M 8.230469 78.078125 L 8.527344 77.871094 C 8.328125 77.871094 8.15625 77.792969 8.007812 77.742188 C 7.882812 77.664062 7.757812 77.585938 7.683594 77.457031 C 7.585938 77.300781 7.535156 77.144531 7.535156 76.988281 C 7.535156 76.832031 7.609375 76.675781 7.710938 76.546875 C 7.785156 76.441406 7.957031 76.3125 8.203125 76.105469 L 9.074219 75.429688 C 9.246094 75.300781 9.34375 75.195312 9.371094 75.144531 C 9.371094 75.066406 9.371094 74.988281 9.320312 74.882812 L 9.394531 74.832031 L 10.214844 76.027344 L 10.136719 76.078125 C 10.136719 76.078125 9.988281 75.949219 9.890625 75.972656 C 9.839844 75.972656 9.71875 76.050781 9.570312 76.15625 L 8.578125 76.910156 C 8.402344 77.039062 8.28125 77.144531 8.253906 77.195312 C 8.203125 77.246094 8.203125 77.300781 8.203125 77.351562 C 8.203125 77.402344 8.203125 77.457031 8.253906 77.507812 C 8.355469 77.664062 8.550781 77.714844 8.824219 77.6875 L 10.039062 76.78125 C 10.214844 76.648438 10.3125 76.546875 10.3125 76.496094 C 10.3125 76.417969 10.3125 76.339844 10.261719 76.261719 L 10.335938 76.207031 L 11.15625 77.402344 L 11.082031 77.457031 C 11.082031 77.457031 10.933594 77.324219 10.832031 77.324219 C 10.78125 77.324219 10.660156 77.378906 10.484375 77.535156 L 9.222656 78.496094 C 9.046875 78.625 8.949219 78.726562 8.925781 78.78125 C 8.925781 78.859375 8.925781 78.9375 8.972656 79.039062 L 8.898438 79.09375 L 8.230469 78.132812 Z M 6.347656 73.921875 C 6.171875 74.207031 6.148438 74.441406 6.246094 74.625 C 6.273438 74.703125 6.320312 74.726562 6.394531 74.753906 C 6.496094 74.78125 6.617188 74.78125 6.765625 74.753906 C 6.917969 74.703125 7.140625 74.625 7.410156 74.441406 C 7.710938 74.261719 7.933594 74.105469 8.03125 73.972656 C 8.15625 73.84375 8.230469 73.714844 8.230469 73.585938 C 8.230469 73.53125 8.230469 73.453125 8.179688 73.375 C 8.105469 73.21875 7.882812 73.144531 7.585938 73.144531 L 6.320312 73.894531 Z M 4.3125 74.15625 L 7.066406 72.46875 C 7.238281 72.363281 7.363281 72.285156 7.386719 72.257812 C 7.4375 72.207031 7.460938 72.15625 7.460938 72.105469 C 7.460938 72.050781 7.460938 71.972656 7.386719 71.871094 L 7.484375 71.816406 L 8.28125 72.753906 L 7.90625 72.988281 C 8.128906 73.011719 8.28125 73.066406 8.402344 73.144531 C 8.503906 73.21875 8.601562 73.296875 8.675781 73.429688 C 8.847656 73.742188 8.847656 74.078125 8.675781 74.441406 C 8.527344 74.726562 8.304688 74.960938 7.980469 75.167969 C 7.734375 75.324219 7.460938 75.429688 7.214844 75.453125 C 6.964844 75.480469 6.742188 75.453125 6.542969 75.351562 C 6.347656 75.246094 6.195312 75.117188 6.097656 74.933594 C 6.023438 74.804688 6 74.703125 6 74.570312 C 6 74.441406 6 74.3125 6.074219 74.128906 L 5.355469 74.570312 C 5.179688 74.675781 5.058594 74.753906 5.03125 74.804688 C 5.007812 74.855469 4.984375 74.910156 4.984375 74.960938 C 4.984375 75.011719 5.007812 75.117188 5.082031 75.222656 L 4.984375 75.300781 L 4.363281 74.183594 Z M 4.535156 71.660156 L 6.496094 70.648438 C 6.667969 70.542969 6.765625 70.464844 6.792969 70.414062 C 6.816406 70.335938 6.792969 70.257812 6.765625 70.128906 L 6.867188 70.078125 L 7.535156 71.507812 L 7.4375 71.558594 C 7.4375 71.558594 7.3125 71.375 7.214844 71.351562 C 7.164062 71.351562 7.039062 71.351562 6.867188 71.453125 L 5.402344 72.207031 C 5.230469 72.3125 5.132812 72.390625 5.105469 72.441406 C 5.082031 72.519531 5.105469 72.597656 5.132812 72.726562 L 5.03125 72.777344 L 4.511719 71.6875 Z M 3.519531 72.675781 C 3.519531 72.675781 3.445312 72.441406 3.519531 72.3125 C 3.59375 72.179688 3.644531 72.105469 3.742188 72.027344 C 3.867188 71.972656 3.964844 71.949219 4.089844 72.027344 C 4.214844 72.078125 4.289062 72.15625 4.363281 72.257812 C 4.414062 72.390625 4.4375 72.492188 4.363281 72.625 C 4.3125 72.753906 4.238281 72.832031 4.140625 72.910156 C 4.015625 72.960938 3.917969 72.988281 3.792969 72.910156 C 3.667969 72.855469 3.59375 72.777344 3.519531 72.675781 Z M 2.824219 70.234375 L 3.769531 69.84375 L 3.519531 69.195312 L 3.792969 69.089844 L 4.039062 69.738281 L 5.628906 69.0625 C 5.777344 69.011719 5.875 68.960938 5.898438 68.90625 C 5.949219 68.882812 5.972656 68.828125 5.972656 68.777344 C 5.972656 68.726562 5.972656 68.699219 5.972656 68.648438 C 5.925781 68.519531 5.800781 68.441406 5.578125 68.414062 L 5.578125 68.308594 C 6.023438 68.308594 6.296875 68.492188 6.421875 68.855469 C 6.496094 69.039062 6.496094 69.195312 6.445312 69.351562 C 6.394531 69.503906 6.320312 69.636719 6.222656 69.714844 C 6.171875 69.765625 6 69.84375 5.726562 69.945312 L 4.339844 70.542969 L 4.488281 70.910156 L 4.386719 70.960938 C 4.140625 70.777344 3.890625 70.648438 3.644531 70.570312 C 3.394531 70.464844 3.148438 70.414062 2.875 70.390625 L 2.875 70.285156 Z M 3 67.714844 L 5.082031 66.984375 C 5.28125 66.90625 5.378906 66.855469 5.429688 66.777344 C 5.453125 66.726562 5.476562 66.621094 5.429688 66.464844 L 5.527344 66.464844 C 5.527344 66.464844 6 67.921875 6 67.921875 L 5.898438 67.921875 C 5.898438 67.921875 5.800781 67.738281 5.703125 67.714844 C 5.652344 67.714844 5.527344 67.714844 5.328125 67.765625 L 3.792969 68.308594 C 3.59375 68.386719 3.496094 68.441406 3.445312 68.519531 C 3.421875 68.570312 3.394531 68.675781 3.445312 68.828125 L 3.347656 68.828125 C 3.347656 68.828125 2.976562 67.714844 2.976562 67.714844 Z M 1.859375 68.570312 C 1.859375 68.570312 1.835938 68.308594 1.859375 68.207031 C 1.910156 68.078125 2.007812 68 2.132812 67.972656 C 2.253906 67.921875 2.378906 67.945312 2.480469 67.972656 C 2.601562 68.023438 2.675781 68.128906 2.703125 68.257812 C 2.75 68.386719 2.726562 68.519531 2.703125 68.621094 C 2.652344 68.753906 2.554688 68.828125 2.429688 68.855469 C 2.304688 68.90625 2.179688 68.882812 2.082031 68.855469 C 1.957031 68.804688 1.882812 68.699219 1.859375 68.570312 Z M 2.527344 65.582031 C 2.527344 65.582031 2.628906 65.765625 2.703125 65.816406 C 2.800781 65.867188 2.949219 65.867188 3.171875 65.816406 C 3.394531 65.765625 3.695312 65.710938 4.089844 65.582031 C 4.289062 65.53125 4.488281 65.453125 4.660156 65.375 C 4.785156 65.324219 4.882812 65.246094 4.933594 65.140625 C 4.984375 65.035156 5.007812 64.960938 4.984375 64.855469 C 4.984375 64.777344 4.90625 64.699219 4.859375 64.648438 C 4.785156 64.59375 4.660156 64.570312 4.535156 64.570312 C 4.339844 64.570312 3.964844 64.671875 3.421875 64.828125 C 3.097656 64.933594 2.875 65.011719 2.777344 65.089844 C 2.675781 65.167969 2.601562 65.246094 2.554688 65.324219 C 2.527344 65.375 2.527344 65.453125 2.554688 65.53125 Z M 2.332031 65.660156 C 2.253906 65.425781 2.253906 65.167969 2.332031 64.933594 C 2.40625 64.699219 2.527344 64.492188 2.726562 64.308594 C 2.925781 64.128906 3.148438 64.023438 3.394531 63.945312 C 3.769531 63.84375 4.113281 63.84375 4.4375 63.945312 C 4.808594 64.101562 5.058594 64.386719 5.15625 64.828125 C 5.253906 65.246094 5.207031 65.609375 4.984375 65.921875 C 4.757812 66.230469 4.460938 66.441406 4.089844 66.542969 C 3.71875 66.648438 3.347656 66.648438 3 66.492188 C 2.652344 66.335938 2.429688 66.074219 2.332031 65.660156 Z M 1.734375 62.464844 L 2.082031 62.386719 C 1.910156 62.28125 1.785156 62.152344 1.6875 62.023438 C 1.585938 61.894531 1.535156 61.761719 1.511719 61.609375 C 1.488281 61.425781 1.511719 61.269531 1.585938 61.113281 C 1.660156 60.984375 1.761719 60.878906 1.910156 60.800781 C 2.007812 60.75 2.230469 60.699219 2.527344 60.621094 L 3.59375 60.414062 C 3.792969 60.359375 3.941406 60.335938 3.964844 60.28125 C 4.015625 60.230469 4.015625 60.152344 4.015625 60.023438 L 4.113281 60.023438 C 4.113281 60.023438 4.363281 61.453125 4.363281 61.453125 L 4.261719 61.453125 C 4.261719 61.453125 4.164062 61.296875 4.089844 61.269531 C 4.039062 61.269531 3.917969 61.269531 3.71875 61.269531 L 2.503906 61.503906 C 2.28125 61.554688 2.132812 61.582031 2.082031 61.609375 C 2.03125 61.632812 1.984375 61.6875 1.957031 61.738281 C 1.957031 61.789062 1.933594 61.839844 1.957031 61.894531 C 1.984375 62.074219 2.132812 62.207031 2.40625 62.308594 L 3.867188 62.023438 C 4.066406 61.972656 4.1875 61.945312 4.238281 61.894531 C 4.289062 61.839844 4.3125 61.761719 4.3125 61.660156 L 4.414062 61.660156 C 4.414062 61.660156 4.660156 63.089844 4.660156 63.089844 L 4.5625 63.089844 C 4.5625 63.089844 4.488281 62.90625 4.414062 62.878906 C 4.363281 62.878906 4.238281 62.878906 4.015625 62.878906 L 2.480469 63.191406 C 2.28125 63.246094 2.15625 63.269531 2.105469 63.324219 C 2.058594 63.375 2.03125 63.453125 2.058594 63.582031 L 1.957031 63.582031 C 1.957031 63.582031 1.761719 62.4375 1.761719 62.4375 Z M 1.3125 58.699219 L 3.496094 58.515625 C 3.695312 58.515625 3.816406 58.464844 3.867188 58.410156 C 3.917969 58.359375 3.941406 58.257812 3.941406 58.125 L 4.039062 58.125 C 4.039062 58.125 4.164062 59.683594 4.164062 59.683594 L 4.066406 59.683594 C 4.066406 59.683594 4.015625 59.476562 3.941406 59.398438 C 3.890625 59.375 3.769531 59.347656 3.570312 59.375 L 1.957031 59.503906 C 1.761719 59.503906 1.636719 59.554688 1.585938 59.605469 C 1.535156 59.660156 1.511719 59.761719 1.511719 59.894531 L 1.414062 59.894531 C 1.414062 59.894531 1.3125 58.671875 1.3125 58.671875 Z M 0 59.242188 C 0 59.113281 0.0234375 58.984375 0.0976562 58.878906 C 0.171875 58.777344 0.296875 58.722656 0.421875 58.722656 C 0.546875 58.722656 0.667969 58.75 0.742188 58.828125 C 0.84375 58.90625 0.890625 59.035156 0.890625 59.164062 C 0.890625 59.296875 0.867188 59.425781 0.792969 59.503906 C 0.71875 59.605469 0.621094 59.660156 0.472656 59.660156 C 0.347656 59.660156 0.222656 59.632812 0.148438 59.554688 C 0.0507812 59.476562 0 59.375 0 59.21875 Z M 1.214844 56.75 L 1.5625 56.75 C 1.414062 56.59375 1.289062 56.464844 1.214844 56.308594 C 1.140625 56.179688 1.089844 56.023438 1.089844 55.867188 C 1.089844 55.683594 1.140625 55.527344 1.214844 55.398438 C 1.3125 55.269531 1.4375 55.191406 1.585938 55.136719 C 1.710938 55.113281 1.910156 55.085938 2.230469 55.0625 L 3.320312 55.0625 C 3.542969 55.007812 3.667969 54.984375 3.71875 54.957031 C 3.769531 54.90625 3.792969 54.828125 3.816406 54.695312 L 3.917969 54.695312 C 3.917969 54.695312 3.964844 56.152344 3.964844 56.152344 L 3.867188 56.152344 C 3.867188 56.152344 3.792969 55.96875 3.71875 55.917969 C 3.667969 55.890625 3.542969 55.867188 3.347656 55.890625 L 2.105469 55.945312 C 1.882812 55.945312 1.734375 55.945312 1.6875 55.996094 C 1.636719 55.996094 1.585938 56.046875 1.5625 56.101562 C 1.535156 56.152344 1.511719 56.203125 1.511719 56.253906 C 1.511719 56.4375 1.636719 56.59375 1.882812 56.75 L 3.371094 56.699219 C 3.570312 56.699219 3.71875 56.671875 3.769531 56.621094 C 3.816406 56.566406 3.84375 56.488281 3.867188 56.386719 L 3.964844 56.386719 C 3.964844 56.386719 4.015625 57.839844 4.015625 57.839844 L 3.917969 57.839844 C 3.917969 57.839844 3.867188 57.632812 3.792969 57.582031 C 3.742188 57.554688 3.617188 57.527344 3.394531 57.554688 L 1.835938 57.605469 C 1.609375 57.605469 1.488281 57.632812 1.4375 57.683594 C 1.386719 57.738281 1.363281 57.816406 1.339844 57.945312 L 1.238281 57.945312 C 1.238281 57.945312 1.191406 56.773438 1.191406 56.773438 Z M 4.535156 53.191406 C 4.535156 53.398438 4.535156 53.554688 4.535156 53.605469 C 4.585938 53.734375 4.660156 53.789062 4.757812 53.8125 C 4.859375 53.8125 4.957031 53.761719 5.03125 53.65625 C 5.132812 53.554688 5.179688 53.320312 5.207031 52.980469 C 5.207031 52.695312 5.207031 52.460938 5.15625 52.308594 C 5.105469 52.125 5.007812 52.046875 4.859375 52.046875 C 4.808594 52.046875 4.757812 52.046875 4.734375 52.074219 C 4.660156 52.125 4.636719 52.203125 4.585938 52.308594 C 4.5625 52.410156 4.511719 52.722656 4.488281 53.214844 Z M 1.488281 52.773438 C 1.488281 52.773438 1.535156 53.007812 1.636719 53.085938 C 1.734375 53.191406 1.984375 53.242188 2.332031 53.269531 C 2.628906 53.269531 2.824219 53.269531 2.949219 53.191406 C 3.074219 53.113281 3.125 53.035156 3.125 52.90625 C 3.125 52.773438 3.074219 52.671875 2.976562 52.59375 C 2.875 52.488281 2.675781 52.4375 2.355469 52.410156 C 2.007812 52.382812 1.761719 52.410156 1.636719 52.488281 C 1.535156 52.539062 1.488281 52.644531 1.460938 52.75 Z M 1.460938 52.230469 L 1.535156 51.265625 L 1.859375 51.265625 C 1.859375 51.265625 1.808594 51.839844 1.808594 51.839844 C 1.910156 51.734375 2.007812 51.683594 2.082031 51.65625 C 2.179688 51.605469 2.304688 51.605469 2.429688 51.605469 C 2.628906 51.605469 2.800781 51.683594 2.925781 51.8125 C 3.050781 51.941406 3.171875 52.097656 3.222656 52.308594 C 3.296875 52.515625 3.320312 52.695312 3.296875 52.851562 C 3.296875 52.851562 3.296875 52.980469 3.246094 53.214844 C 3.246094 53.320312 3.246094 53.398438 3.320312 53.449219 C 3.371094 53.527344 3.445312 53.554688 3.519531 53.554688 C 3.59375 53.554688 3.644531 53.554688 3.695312 53.476562 C 3.742188 53.425781 3.769531 53.320312 3.792969 53.214844 L 3.792969 52.671875 C 3.867188 52.230469 3.917969 51.941406 4.015625 51.789062 C 4.164062 51.554688 4.363281 51.449219 4.636719 51.476562 C 4.808594 51.476562 4.957031 51.554688 5.082031 51.683594 C 5.207031 51.8125 5.304688 51.941406 5.355469 52.125 C 5.429688 52.410156 5.453125 52.722656 5.429688 53.058594 C 5.429688 53.320312 5.378906 53.554688 5.304688 53.761719 C 5.230469 53.96875 5.15625 54.125 5.082031 54.203125 C 4.984375 54.28125 4.90625 54.332031 4.808594 54.332031 C 4.710938 54.332031 4.636719 54.28125 4.585938 54.203125 C 4.535156 54.125 4.460938 53.996094 4.4375 53.789062 C 4.289062 54.046875 4.113281 54.175781 3.867188 54.152344 C 3.71875 54.152344 3.59375 54.074219 3.46875 53.945312 C 3.347656 53.8125 3.246094 53.632812 3.171875 53.398438 C 3.050781 53.65625 2.925781 53.867188 2.75 53.96875 C 2.578125 54.074219 2.40625 54.125 2.179688 54.097656 C 1.910156 54.097656 1.6875 53.945312 1.511719 53.683594 C 1.339844 53.449219 1.265625 53.136719 1.289062 52.773438 C 1.289062 52.59375 1.363281 52.382812 1.4375 52.203125 Z M 2.898438 47.605469 C 2.898438 47.785156 2.949219 47.917969 3.023438 47.992188 C 3.097656 48.125 3.222656 48.203125 3.347656 48.226562 C 3.519531 48.28125 3.71875 48.28125 3.917969 48.226562 C 4.113281 48.175781 4.289062 48.070312 4.4375 47.96875 C 4.585938 47.839844 4.660156 47.707031 4.710938 47.550781 C 4.710938 47.472656 4.734375 47.398438 4.710938 47.292969 C 4.710938 47.1875 4.683594 47.085938 4.660156 46.953125 C 4.066406 47.292969 3.46875 47.527344 2.898438 47.628906 Z M 2.601562 46.746094 C 2.601562 46.511719 2.554688 46.355469 2.480469 46.253906 C 2.40625 46.148438 2.332031 46.097656 2.207031 46.046875 C 1.984375 45.992188 1.808594 45.992188 1.609375 46.046875 C 1.488281 46.097656 1.414062 46.175781 1.386719 46.28125 C 1.363281 46.382812 1.386719 46.460938 1.4375 46.566406 C 1.488281 46.644531 1.585938 46.722656 1.6875 46.746094 C 1.785156 46.773438 1.882812 46.800781 2.007812 46.773438 C 2.132812 46.773438 2.332031 46.773438 2.601562 46.695312 Z M 3.097656 45.605469 L 3.421875 44.355469 L 3.519531 44.355469 C 3.519531 44.539062 3.519531 44.667969 3.542969 44.746094 C 3.59375 44.851562 3.695312 44.980469 3.890625 45.1875 C 4.089844 45.371094 4.261719 45.628906 4.488281 45.941406 C 4.710938 45.785156 4.882812 45.65625 4.984375 45.550781 C 5.058594 45.472656 5.105469 45.394531 5.132812 45.316406 C 5.179688 45.164062 5.132812 45.007812 4.957031 44.824219 L 5.058594 44.71875 C 5.328125 44.980469 5.503906 45.214844 5.578125 45.421875 C 5.628906 45.605469 5.652344 45.761719 5.578125 45.941406 C 5.527344 46.097656 5.453125 46.226562 5.355469 46.355469 C 5.253906 46.488281 5.082031 46.617188 4.859375 46.773438 C 4.957031 47.058594 5.007812 47.34375 5.03125 47.578125 C 5.03125 47.8125 5.03125 48.046875 4.957031 48.304688 C 4.859375 48.695312 4.683594 48.957031 4.414062 49.109375 C 4.164062 49.265625 3.890625 49.320312 3.644531 49.242188 C 3.347656 49.164062 3.148438 48.980469 2.976562 48.695312 C 2.824219 48.410156 2.726562 48.046875 2.675781 47.605469 C 2.527344 47.605469 2.40625 47.605469 2.28125 47.605469 C 2.15625 47.605469 2.03125 47.578125 1.933594 47.550781 C 1.636719 47.472656 1.414062 47.265625 1.265625 46.980469 C 1.117188 46.695312 1.089844 46.382812 1.191406 46.019531 C 1.265625 45.734375 1.386719 45.527344 1.5625 45.394531 C 1.734375 45.265625 1.910156 45.238281 2.105469 45.292969 C 2.332031 45.34375 2.480469 45.5 2.601562 45.707031 C 2.703125 45.914062 2.777344 46.226562 2.800781 46.617188 C 3.246094 46.511719 3.742188 46.28125 4.289062 45.992188 C 4.039062 45.605469 3.816406 45.394531 3.59375 45.316406 C 3.519531 45.316406 3.445312 45.316406 3.371094 45.34375 C 3.296875 45.394531 3.246094 45.449219 3.199219 45.578125 L 3.097656 45.578125 Z M 3.769531 39.914062 L 5.328125 40.71875 L 5.402344 40.5625 C 5.527344 40.304688 5.601562 40.097656 5.601562 39.941406 C 5.601562 39.785156 5.601562 39.65625 5.503906 39.523438 C 5.429688 39.394531 5.28125 39.265625 5.105469 39.1875 C 4.832031 39.058594 4.609375 39.003906 4.414062 39.082031 C 4.214844 39.160156 4.039062 39.34375 3.917969 39.628906 Z M 5.527344 40.824219 L 6.542969 41.34375 C 6.742188 41.445312 6.867188 41.5 6.941406 41.5 C 7.015625 41.5 7.066406 41.5 7.113281 41.421875 C 7.164062 41.371094 7.238281 41.265625 7.335938 41.082031 L 7.4375 41.136719 L 6.519531 43.058594 L 6.421875 43.007812 C 6.496094 42.824219 6.542969 42.695312 6.542969 42.617188 C 6.542969 42.539062 6.542969 42.460938 6.496094 42.433594 C 6.445312 42.382812 6.347656 42.304688 6.148438 42.199219 L 3.792969 40.980469 C 3.59375 40.875 3.46875 40.824219 3.394531 40.824219 C 3.320312 40.824219 3.273438 40.824219 3.222656 40.902344 C 3.171875 40.953125 3.097656 41.058594 3 41.238281 L 2.898438 41.1875 L 3.71875 39.421875 C 3.941406 38.953125 4.113281 38.640625 4.289062 38.460938 C 4.4375 38.277344 4.636719 38.171875 4.859375 38.121094 C 5.082031 38.070312 5.304688 38.121094 5.527344 38.226562 C 5.800781 38.355469 5.972656 38.589844 6.046875 38.875 C 6.097656 39.058594 6.097656 39.289062 6.046875 39.550781 L 7.710938 39.265625 C 7.933594 39.238281 8.054688 39.1875 8.128906 39.160156 C 8.230469 39.109375 8.304688 39.03125 8.355469 38.953125 L 8.453125 39.003906 L 7.882812 40.199219 L 5.675781 40.5625 L 5.550781 40.824219 Z M 8.054688 36.535156 C 7.785156 36.355469 7.585938 36.25 7.484375 36.199219 C 7.363281 36.171875 7.261719 36.148438 7.164062 36.199219 C 7.113281 36.199219 7.066406 36.25 7.039062 36.304688 C 6.992188 36.382812 6.992188 36.484375 7.039062 36.613281 C 7.113281 36.824219 7.289062 37.003906 7.558594 37.1875 L 7.636719 37.238281 L 8.082031 36.535156 Z M 8.625 36.015625 L 7.785156 37.34375 C 8.105469 37.523438 8.402344 37.628906 8.675781 37.574219 C 8.898438 37.550781 9.046875 37.445312 9.148438 37.289062 C 9.222656 37.1875 9.246094 37.082031 9.246094 36.953125 C 9.246094 36.824219 9.195312 36.667969 9.121094 36.484375 L 9.222656 36.433594 C 9.394531 36.746094 9.492188 37.003906 9.492188 37.238281 C 9.492188 37.472656 9.445312 37.679688 9.320312 37.914062 C 9.097656 38.277344 8.800781 38.460938 8.402344 38.460938 C 8.105469 38.460938 7.785156 38.355469 7.460938 38.148438 C 7.066406 37.886719 6.839844 37.574219 6.742188 37.1875 C 6.644531 36.824219 6.691406 36.484375 6.867188 36.171875 C 7.015625 35.9375 7.238281 35.785156 7.558594 35.730469 C 7.859375 35.679688 8.203125 35.785156 8.601562 36.015625 Z M 8.875 33.964844 L 10.386719 35.210938 C 10.535156 35.34375 10.632812 35.394531 10.707031 35.394531 C 10.808594 35.394531 10.90625 35.316406 11.007812 35.1875 L 11.082031 35.265625 L 10.0625 36.613281 L 9.988281 36.535156 C 9.988281 36.535156 10.113281 36.355469 10.113281 36.277344 C 10.113281 36.226562 10.113281 36.171875 10.113281 36.121094 C 10.089844 36.070312 10.015625 35.992188 9.890625 35.914062 L 8.378906 34.667969 L 8.128906 34.976562 L 7.90625 34.796875 L 8.15625 34.484375 L 8.007812 34.355469 L 7.90625 34.277344 C 7.683594 34.09375 7.558594 33.859375 7.535156 33.550781 C 7.535156 33.261719 7.609375 32.953125 7.832031 32.664062 C 7.980469 32.457031 8.128906 32.355469 8.28125 32.300781 C 8.429688 32.277344 8.527344 32.300781 8.625 32.355469 C 8.699219 32.40625 8.726562 32.484375 8.75 32.589844 C 8.75 32.691406 8.726562 32.796875 8.652344 32.898438 C 8.578125 32.976562 8.527344 33.03125 8.429688 33.054688 C 8.355469 33.054688 8.28125 33.054688 8.230469 33.003906 C 8.230469 33.003906 8.179688 32.953125 8.15625 32.925781 C 8.15625 32.898438 8.105469 32.875 8.082031 32.847656 C 8.054688 32.820312 8.007812 32.820312 7.980469 32.820312 C 7.933594 32.820312 7.90625 32.847656 7.882812 32.898438 C 7.859375 32.953125 7.832031 33.003906 7.859375 33.054688 C 7.859375 33.109375 7.90625 33.183594 8.007812 33.261719 L 8.429688 33.601562 L 8.699219 33.835938 L 8.949219 33.496094 L 9.171875 33.679688 L 8.925781 34.015625 Z M 9.941406 32.121094 L 10.4375 32.535156 C 10.335938 32.199219 10.289062 31.9375 10.3125 31.757812 C 10.3125 31.574219 10.386719 31.445312 10.460938 31.339844 C 10.535156 31.261719 10.609375 31.210938 10.707031 31.183594 C 10.808594 31.183594 10.90625 31.210938 10.980469 31.289062 C 11.082031 31.367188 11.128906 31.472656 11.15625 31.574219 C 11.15625 31.679688 11.15625 31.757812 11.082031 31.835938 C 11.007812 31.914062 10.933594 31.964844 10.832031 31.992188 C 10.734375 31.992188 10.683594 32.015625 10.660156 32.015625 C 10.660156 32.015625 10.609375 32.015625 10.609375 32.066406 C 10.585938 32.121094 10.558594 32.171875 10.558594 32.25 C 10.558594 32.355469 10.585938 32.484375 10.660156 32.589844 C 10.757812 32.769531 10.90625 32.925781 11.082031 33.082031 L 11.578125 33.496094 L 11.699219 33.601562 C 11.699219 33.601562 11.847656 33.730469 11.875 33.730469 C 11.921875 33.730469 11.972656 33.730469 12.023438 33.730469 C 12.070312 33.730469 12.144531 33.652344 12.222656 33.574219 L 12.296875 33.652344 L 11.328125 34.875 L 11.253906 34.796875 C 11.253906 34.796875 11.351562 34.613281 11.328125 34.535156 C 11.328125 34.457031 11.203125 34.355469 11.03125 34.171875 L 9.839844 33.132812 C 9.839844 33.132812 9.644531 32.953125 9.59375 32.953125 C 9.542969 32.953125 9.492188 32.925781 9.445312 32.953125 C 9.394531 32.953125 9.34375 33.003906 9.269531 33.082031 L 9.195312 33.003906 L 9.914062 32.09375 Z M 11.996094 29.9375 L 13.511719 31.601562 C 13.660156 31.757812 13.757812 31.835938 13.832031 31.835938 C 13.90625 31.835938 13.980469 31.808594 14.105469 31.703125 L 14.179688 31.78125 L 13.089844 32.875 L 13.015625 32.796875 C 13.015625 32.796875 13.136719 32.613281 13.136719 32.511719 C 13.136719 32.457031 13.0625 32.328125 12.941406 32.199219 L 11.824219 30.976562 C 11.675781 30.820312 11.578125 30.742188 11.5 30.742188 C 11.425781 30.742188 11.351562 30.769531 11.253906 30.875 L 11.179688 30.796875 L 12.023438 29.9375 Z M 10.757812 29.238281 C 10.757812 29.238281 10.957031 29.105469 11.082031 29.105469 C 11.203125 29.105469 11.304688 29.160156 11.402344 29.261719 C 11.5 29.367188 11.527344 29.46875 11.527344 29.601562 C 11.527344 29.730469 11.476562 29.835938 11.378906 29.9375 C 11.277344 30.042969 11.179688 30.066406 11.054688 30.066406 C 10.933594 30.066406 10.832031 30.015625 10.734375 29.910156 C 10.632812 29.808594 10.609375 29.703125 10.609375 29.574219 C 10.609375 29.445312 10.660156 29.339844 10.757812 29.238281 Z M 15.441406 31.160156 C 15.292969 31.289062 15.195312 31.394531 15.171875 31.472656 C 15.121094 31.601562 15.144531 31.703125 15.21875 31.78125 C 15.292969 31.859375 15.394531 31.886719 15.542969 31.886719 C 15.691406 31.886719 15.863281 31.757812 16.113281 31.523438 C 16.3125 31.339844 16.460938 31.160156 16.535156 30.976562 C 16.609375 30.820312 16.582031 30.664062 16.507812 30.5625 C 16.484375 30.535156 16.433594 30.507812 16.386719 30.484375 C 16.3125 30.484375 16.210938 30.484375 16.113281 30.5625 C 16.011719 30.613281 15.789062 30.820312 15.441406 31.132812 Z M 13.535156 28.640625 C 13.535156 28.640625 13.410156 28.820312 13.433594 28.976562 C 13.433594 29.132812 13.585938 29.339844 13.832031 29.625 C 14.03125 29.859375 14.179688 29.988281 14.328125 30.015625 C 14.453125 30.042969 14.574219 30.015625 14.648438 29.964844 C 14.75 29.886719 14.773438 29.78125 14.773438 29.625 C 14.773438 29.496094 14.648438 29.289062 14.453125 29.054688 C 14.230469 28.769531 14.03125 28.613281 13.882812 28.585938 C 13.78125 28.5625 13.683594 28.585938 13.585938 28.664062 Z M 13.855469 28.222656 L 14.550781 27.574219 L 14.773438 27.832031 L 14.378906 28.199219 C 14.527344 28.199219 14.625 28.222656 14.699219 28.273438 C 14.796875 28.328125 14.898438 28.40625 14.972656 28.484375 C 15.097656 28.640625 15.171875 28.820312 15.195312 29.003906 C 15.195312 29.183594 15.195312 29.390625 15.097656 29.574219 C 15.023438 29.78125 14.921875 29.910156 14.796875 30.015625 C 14.796875 30.015625 14.699219 30.09375 14.527344 30.25 C 14.453125 30.300781 14.425781 30.378906 14.425781 30.484375 C 14.425781 30.5625 14.425781 30.640625 14.5 30.71875 C 14.550781 30.769531 14.601562 30.796875 14.675781 30.796875 C 14.75 30.796875 14.824219 30.742188 14.921875 30.664062 L 15.292969 30.300781 C 15.617188 30.015625 15.839844 29.859375 16.039062 29.808594 C 16.285156 29.757812 16.507812 29.808594 16.683594 30.042969 C 16.78125 30.171875 16.855469 30.328125 16.882812 30.507812 C 16.882812 30.691406 16.882812 30.875 16.78125 31.027344 C 16.65625 31.289062 16.460938 31.523438 16.210938 31.757812 C 16.011719 31.9375 15.839844 32.066406 15.640625 32.171875 C 15.46875 32.277344 15.292969 32.328125 15.171875 32.328125 C 15.046875 32.328125 14.949219 32.277344 14.898438 32.199219 C 14.847656 32.121094 14.796875 32.042969 14.824219 31.9375 C 14.824219 31.835938 14.875 31.703125 14.996094 31.523438 C 14.722656 31.601562 14.5 31.546875 14.351562 31.367188 C 14.253906 31.261719 14.203125 31.105469 14.203125 30.953125 C 14.203125 30.769531 14.253906 30.5625 14.351562 30.355469 C 14.078125 30.457031 13.855469 30.484375 13.660156 30.457031 C 13.460938 30.40625 13.3125 30.300781 13.164062 30.144531 C 12.988281 29.9375 12.914062 29.679688 12.941406 29.367188 C 12.964844 29.054688 13.113281 28.792969 13.386719 28.535156 C 13.535156 28.40625 13.683594 28.300781 13.882812 28.222656 Z M 17.003906 27.132812 C 16.808594 26.871094 16.683594 26.691406 16.582031 26.613281 C 16.484375 26.535156 16.386719 26.484375 16.285156 26.484375 C 16.238281 26.484375 16.1875 26.484375 16.113281 26.535156 C 16.039062 26.585938 15.988281 26.691406 15.988281 26.820312 C 15.988281 27.054688 16.085938 27.289062 16.261719 27.546875 L 16.3125 27.625 L 16.957031 27.132812 Z M 17.699219 26.847656 L 16.460938 27.78125 C 16.683594 28.09375 16.929688 28.273438 17.203125 28.328125 C 17.402344 28.378906 17.601562 28.328125 17.75 28.222656 C 17.847656 28.144531 17.921875 28.066406 17.945312 27.9375 C 17.996094 27.832031 17.996094 27.652344 17.996094 27.445312 L 18.121094 27.445312 C 18.171875 27.78125 18.171875 28.066406 18.121094 28.300781 C 18.046875 28.507812 17.921875 28.71875 17.722656 28.847656 C 17.402344 29.105469 17.054688 29.160156 16.683594 29.027344 C 16.386719 28.925781 16.136719 28.691406 15.914062 28.378906 C 15.640625 27.988281 15.519531 27.601562 15.566406 27.210938 C 15.617188 26.820312 15.765625 26.535156 16.039062 26.328125 C 16.261719 26.144531 16.535156 26.09375 16.832031 26.171875 C 17.128906 26.25 17.425781 26.457031 17.699219 26.820312 Z M 18.492188 24.820312 L 18.816406 25.390625 C 18.816406 25.027344 18.863281 24.769531 18.9375 24.613281 C 19.011719 24.457031 19.113281 24.351562 19.210938 24.273438 C 19.308594 24.222656 19.410156 24.195312 19.484375 24.222656 C 19.582031 24.25 19.65625 24.328125 19.707031 24.429688 C 19.78125 24.558594 19.804688 24.664062 19.78125 24.769531 C 19.78125 24.871094 19.707031 24.949219 19.632812 24.976562 C 19.535156 25.027344 19.460938 25.054688 19.359375 25.027344 C 19.261719 25.027344 19.210938 25 19.1875 25 C 19.1875 25 19.136719 25 19.113281 25 C 19.0625 25.027344 19.039062 25.078125 19.011719 25.15625 C 18.988281 25.261719 18.964844 25.390625 19.011719 25.519531 C 19.0625 25.730469 19.136719 25.9375 19.261719 26.144531 L 19.582031 26.714844 L 19.65625 26.871094 C 19.65625 26.871094 19.757812 27.027344 19.78125 27.054688 C 19.832031 27.082031 19.878906 27.105469 19.929688 27.105469 C 19.980469 27.105469 20.054688 27.082031 20.152344 27.027344 L 20.203125 27.132812 L 18.890625 27.910156 L 18.839844 27.808594 C 18.839844 27.808594 18.988281 27.652344 19.011719 27.601562 C 19.011719 27.523438 18.964844 27.390625 18.839844 27.15625 L 18.070312 25.753906 C 17.996094 25.597656 17.921875 25.519531 17.898438 25.496094 C 17.847656 25.445312 17.796875 25.445312 17.773438 25.417969 C 17.722656 25.417969 17.648438 25.417969 17.574219 25.46875 L 17.527344 25.367188 L 18.515625 24.769531 Z M 22.359375 25.261719 L 21.988281 24.378906 C 21.839844 24.613281 21.714844 24.847656 21.691406 25.027344 C 21.664062 25.15625 21.691406 25.289062 21.714844 25.390625 C 21.738281 25.46875 21.8125 25.546875 21.914062 25.574219 C 21.988281 25.597656 22.0625 25.597656 22.136719 25.574219 C 22.234375 25.519531 22.308594 25.417969 22.382812 25.261719 Z M 22.457031 25.46875 C 22.261719 25.910156 22.0625 26.171875 21.8125 26.273438 C 21.664062 26.351562 21.515625 26.351562 21.394531 26.273438 C 21.242188 26.222656 21.144531 26.117188 21.09375 25.964844 C 21.019531 25.753906 21.019531 25.546875 21.09375 25.289062 C 21.195312 25.054688 21.46875 24.664062 21.914062 24.144531 L 21.789062 23.882812 C 21.714844 23.675781 21.640625 23.574219 21.589844 23.519531 C 21.542969 23.46875 21.492188 23.441406 21.417969 23.441406 C 21.34375 23.441406 21.269531 23.441406 21.195312 23.46875 C 21.070312 23.519531 20.996094 23.597656 20.945312 23.675781 C 20.921875 23.730469 20.898438 23.78125 20.945312 23.832031 C 20.945312 23.882812 21.019531 23.910156 21.09375 23.9375 C 21.195312 23.988281 21.269531 24.039062 21.292969 24.117188 C 21.34375 24.222656 21.34375 24.300781 21.292969 24.402344 C 21.242188 24.507812 21.195312 24.558594 21.070312 24.613281 C 20.945312 24.664062 20.847656 24.664062 20.75 24.613281 C 20.648438 24.585938 20.574219 24.507812 20.523438 24.402344 C 20.476562 24.273438 20.476562 24.117188 20.523438 23.9375 C 20.574219 23.753906 20.671875 23.597656 20.824219 23.441406 C 20.972656 23.285156 21.144531 23.15625 21.34375 23.078125 C 21.589844 22.976562 21.789062 22.921875 21.988281 22.976562 C 22.160156 23.027344 22.308594 23.078125 22.410156 23.183594 C 22.457031 23.261719 22.558594 23.417969 22.679688 23.703125 L 23.128906 24.742188 C 23.128906 24.742188 23.226562 24.925781 23.226562 24.976562 C 23.226562 25 23.277344 25.027344 23.300781 25.027344 C 23.300781 25.027344 23.351562 25.027344 23.375 25.027344 C 23.425781 25.027344 23.449219 24.949219 23.476562 24.847656 L 23.574219 24.847656 C 23.550781 25.054688 23.5 25.210938 23.425781 25.3125 C 23.351562 25.417969 23.25 25.496094 23.128906 25.574219 C 22.980469 25.652344 22.855469 25.652344 22.730469 25.625 C 22.605469 25.597656 22.53125 25.496094 22.433594 25.367188 Z M 23.671875 21.128906 L 24.046875 22.117188 L 24.664062 21.859375 L 24.765625 22.144531 L 24.144531 22.402344 L 24.765625 24.066406 C 24.8125 24.222656 24.863281 24.328125 24.886719 24.351562 C 24.914062 24.402344 24.960938 24.429688 25.011719 24.429688 C 25.0625 24.429688 25.085938 24.429688 25.136719 24.429688 C 25.257812 24.378906 25.332031 24.25 25.359375 24.015625 L 25.457031 24.015625 C 25.457031 24.480469 25.285156 24.769531 24.9375 24.898438 C 24.765625 24.976562 24.613281 24.976562 24.464844 24.925781 C 24.316406 24.871094 24.195312 24.792969 24.121094 24.691406 C 24.070312 24.636719 23.996094 24.457031 23.894531 24.171875 L 23.351562 22.714844 L 23.003906 22.84375 L 22.953125 22.742188 C 23.128906 22.480469 23.25 22.222656 23.351562 21.960938 C 23.449219 21.703125 23.5 21.441406 23.550781 21.15625 L 23.648438 21.15625 Z M 26.203125 21.417969 L 26.820312 23.625 C 26.871094 23.832031 26.945312 23.9375 26.996094 23.988281 C 27.042969 24.039062 27.144531 24.039062 27.292969 23.988281 L 27.292969 24.09375 C 27.292969 24.09375 25.878906 24.535156 25.878906 24.535156 L 25.878906 24.429688 C 25.878906 24.429688 26.054688 24.328125 26.078125 24.25 C 26.101562 24.195312 26.078125 24.066406 26.027344 23.859375 L 25.582031 22.222656 C 25.53125 22.015625 25.457031 21.910156 25.410156 21.859375 C 25.359375 21.804688 25.257812 21.804688 25.109375 21.859375 L 25.109375 21.753906 C 25.109375 21.753906 26.203125 21.417969 26.203125 21.417969 Z M 25.433594 20.195312 C 25.433594 20.195312 25.679688 20.195312 25.78125 20.246094 C 25.878906 20.300781 25.953125 20.402344 26.003906 20.535156 C 26.027344 20.664062 26.003906 20.792969 25.953125 20.898438 C 25.902344 21 25.804688 21.078125 25.679688 21.128906 C 25.558594 21.15625 25.433594 21.128906 25.332031 21.078125 C 25.234375 21.027344 25.160156 20.921875 25.109375 20.792969 C 25.085938 20.664062 25.109375 20.535156 25.160156 20.429688 C 25.210938 20.324219 25.308594 20.246094 25.433594 20.195312 Z M 28.257812 21.027344 C 28.257812 21.027344 28.085938 21.105469 28.035156 21.207031 C 27.988281 21.3125 27.960938 21.46875 27.988281 21.703125 C 28.011719 21.9375 28.0625 22.246094 28.160156 22.664062 C 28.210938 22.871094 28.257812 23.078125 28.332031 23.261719 C 28.382812 23.390625 28.457031 23.496094 28.53125 23.546875 C 28.605469 23.597656 28.707031 23.625 28.78125 23.597656 C 28.878906 23.597656 28.929688 23.546875 28.976562 23.46875 C 29.027344 23.390625 29.078125 23.285156 29.078125 23.15625 C 29.078125 22.949219 29.003906 22.558594 28.878906 21.988281 C 28.804688 21.648438 28.730469 21.417969 28.679688 21.285156 C 28.605469 21.15625 28.53125 21.078125 28.457031 21.054688 C 28.40625 21.027344 28.332031 21.027344 28.257812 21.054688 Z M 28.210938 20.820312 C 28.433594 20.765625 28.679688 20.765625 28.902344 20.871094 C 29.125 20.949219 29.324219 21.105469 29.472656 21.3125 C 29.621094 21.519531 29.722656 21.753906 29.796875 22.039062 C 29.871094 22.429688 29.84375 22.792969 29.722656 23.105469 C 29.546875 23.496094 29.273438 23.730469 28.855469 23.832031 C 28.457031 23.9375 28.109375 23.832031 27.8125 23.597656 C 27.539062 23.339844 27.34375 23.027344 27.265625 22.636719 C 27.191406 22.222656 27.21875 21.859375 27.390625 21.496094 C 27.539062 21.128906 27.835938 20.921875 28.210938 20.820312 Z M 31.285156 20.324219 L 31.332031 20.6875 C 31.457031 20.507812 31.582031 20.378906 31.703125 20.300781 C 31.828125 20.222656 31.953125 20.144531 32.101562 20.144531 C 32.273438 20.144531 32.421875 20.144531 32.570312 20.246094 C 32.695312 20.324219 32.796875 20.457031 32.84375 20.609375 C 32.894531 20.714844 32.945312 20.949219 32.96875 21.285156 L 33.117188 22.402344 C 33.140625 22.636719 33.191406 22.765625 33.214844 22.820312 C 33.265625 22.871094 33.339844 22.898438 33.464844 22.898438 L 33.464844 23 C 33.464844 23 32.078125 23.183594 32.078125 23.183594 L 32.078125 23.078125 C 32.078125 23.078125 32.226562 23 32.273438 22.921875 C 32.273438 22.871094 32.273438 22.742188 32.273438 22.535156 L 32.101562 21.261719 C 32.078125 21.027344 32.050781 20.871094 32.027344 20.820312 C 32.003906 20.765625 31.976562 20.714844 31.929688 20.6875 C 31.878906 20.664062 31.828125 20.664062 31.777344 20.664062 C 31.605469 20.664062 31.480469 20.820312 31.359375 21.105469 L 31.554688 22.664062 C 31.582031 22.871094 31.628906 23 31.65625 23.054688 C 31.703125 23.105469 31.777344 23.132812 31.878906 23.132812 L 31.878906 23.234375 C 31.878906 23.234375 30.488281 23.417969 30.488281 23.417969 L 30.488281 23.3125 C 30.488281 23.3125 30.664062 23.234375 30.714844 23.15625 C 30.738281 23.105469 30.738281 22.976562 30.714844 22.742188 L 30.515625 21.105469 C 30.488281 20.898438 30.441406 20.742188 30.414062 20.6875 C 30.367188 20.636719 30.292969 20.609375 30.167969 20.609375 L 30.167969 20.507812 C 30.167969 20.507812 31.285156 20.351562 31.285156 20.351562 Z M 35.820312 28.71875 C 21.34375 28.71875 9.59375 41.03125 9.59375 56.203125 C 9.59375 71.375 21.34375 83.691406 35.820312 83.691406 C 50.296875 83.691406 62.046875 71.375 62.046875 56.203125 C 62.046875 41.03125 50.296875 28.71875 35.820312 28.71875 Z M 35.820312 40.847656 C 43.902344 40.847656 50.46875 47.734375 50.46875 56.203125 C 50.46875 64.671875 43.902344 71.558594 35.820312 71.558594 C 27.738281 71.558594 21.167969 64.671875 21.167969 56.203125 C 21.167969 47.734375 27.738281 40.847656 35.820312 40.847656 Z M 79.398438 28.71875 L 67.796875 28.71875 L 67.796875 60.933594 C 68.9375 82.054688 89.265625 90.574219 104.632812 76.417969 C 108.300781 80.519531 112.886719 83.457031 119.753906 83.457031 L 119.753906 71.609375 C 113.0625 70.933594 109.988281 65.894531 110.011719 59.476562 L 110.136719 28.742188 L 98.535156 28.742188 L 98.535156 62.359375 C 98.535156 73.558594 79.222656 73.429688 79.222656 62.492188 C 79.273438 51.242188 79.324219 39.964844 79.375 28.71875 Z M 124.984375 0.0351562 L 136.089844 0.0351562 L 136.089844 83.40625 L 124.984375 83.40625 Z M 165.6875 29.105469 L 151.855469 29.105469 L 138.742188 48.488281 C 135.890625 52.59375 135.765625 56.722656 138.742188 60.828125 L 153.738281 83.691406 L 167.496094 83.691406 L 148.285156 54.851562 C 148.285156 54.851562 148.234375 54.722656 148.285156 54.644531 L 165.710938 29.105469 Z M 170.472656 83.664062 L 170.472656 48.667969 C 170.992188 35.417969 180.882812 28.5625 192.980469 29.132812 L 192.980469 41.109375 C 183.78125 40.097656 181.847656 45.550781 181.726562 53.632812 L 181.726562 83.664062 Z M 242.730469 59.816406 L 242.730469 83.664062 L 231.277344 83.664062 L 231.277344 79.039062 C 227.113281 81.949219 222.105469 83.664062 216.726562 83.664062 C 202.25 83.664062 190.5 71.351562 190.5 56.179688 C 190.5 41.003906 202.25 28.691406 216.726562 28.691406 C 231.203125 28.691406 242.953125 41.003906 242.953125 56.179688 C 242.953125 57.425781 242.878906 58.621094 242.730469 59.816406 Z M 216.726562 40.824219 C 224.808594 40.824219 231.378906 47.707031 231.378906 56.179688 C 231.378906 64.648438 224.808594 71.53125 216.726562 71.53125 C 208.644531 71.53125 202.078125 64.648438 202.078125 56.179688 C 202.078125 47.707031 208.644531 40.824219 216.726562 40.824219 Z M 22.878906 87.953125 L 24.195312 88.496094 L 24.492188 88.183594 C 24.492188 88.183594 24.664062 87.976562 24.691406 87.898438 C 24.738281 87.796875 24.714844 87.691406 24.664062 87.613281 C 24.613281 87.5625 24.515625 87.484375 24.316406 87.40625 L 24.367188 87.300781 L 25.605469 87.820312 L 25.558594 87.925781 C 25.410156 87.898438 25.285156 87.925781 25.160156 87.976562 C 25.035156 88.027344 24.863281 88.183594 24.613281 88.445312 L 22.113281 91.015625 L 22.0625 91.015625 C 22.0625 91.015625 21.914062 87.222656 21.914062 87.222656 C 21.914062 86.859375 21.863281 86.625 21.8125 86.523438 C 21.765625 86.445312 21.691406 86.367188 21.589844 86.316406 L 21.640625 86.210938 L 23.449219 86.9375 L 23.402344 87.042969 L 23.324219 87.042969 C 23.175781 86.964844 23.078125 86.9375 23.003906 86.964844 C 22.953125 86.964844 22.90625 87.015625 22.90625 87.066406 C 22.90625 87.09375 22.90625 87.144531 22.90625 87.171875 C 22.90625 87.171875 22.90625 87.277344 22.90625 87.433594 L 22.90625 88.003906 Z M 22.878906 87.953125 "/>
<path style=" stroke:none;fill-rule:nonzero;fill:rgb(0%,58.431375%,25.098041%);fill-opacity:1;" d="M 253.140625 42.277344 L 254.503906 45.265625 C 254.503906 45.265625 254.605469 45.371094 254.679688 45.371094 L 257.800781 44.929688 C 257.800781 44.929688 257.949219 44.953125 257.976562 45.03125 C 258 45.109375 257.976562 45.1875 257.949219 45.238281 L 255.667969 47.527344 C 255.667969 47.527344 255.59375 47.65625 255.644531 47.734375 L 257.007812 50.722656 C 257.007812 50.722656 257.007812 50.878906 256.984375 50.929688 C 256.933594 50.980469 256.859375 50.980469 256.785156 50.957031 L 254.007812 49.371094 C 254.007812 49.371094 253.859375 49.34375 253.8125 49.398438 L 251.53125 51.683594 C 251.53125 51.683594 251.40625 51.734375 251.332031 51.710938 C 251.257812 51.683594 251.234375 51.605469 251.257812 51.527344 L 251.828125 48.28125 C 251.828125 48.28125 251.828125 48.125 251.753906 48.097656 L 248.976562 46.511719 C 248.976562 46.511719 248.878906 46.410156 248.902344 46.332031 C 248.902344 46.253906 248.976562 46.203125 249.050781 46.175781 L 252.175781 45.734375 C 252.175781 45.734375 252.296875 45.65625 252.324219 45.578125 L 252.894531 42.332031 C 252.894531 42.332031 252.96875 42.199219 253.042969 42.175781 C 253.117188 42.175781 253.191406 42.199219 253.214844 42.277344 "/>
<path style=" stroke:none;fill-rule:nonzero;fill:rgb(0%,58.431375%,25.098041%);fill-opacity:1;" d="M 254.15625 58.386719 L 255.25 60.75 C 255.25 60.75 255.324219 60.828125 255.398438 60.828125 L 257.875 60.492188 C 257.875 60.492188 258 60.492188 258.023438 60.570312 C 258.050781 60.621094 258.023438 60.699219 258 60.722656 L 256.191406 62.542969 C 256.191406 62.542969 256.140625 62.648438 256.164062 62.699219 L 257.257812 65.0625 C 257.257812 65.0625 257.257812 65.191406 257.230469 65.21875 C 257.183594 65.269531 257.132812 65.269531 257.082031 65.21875 L 254.875 63.972656 C 254.875 63.972656 254.753906 63.972656 254.726562 63.972656 L 252.917969 65.765625 C 252.917969 65.765625 252.820312 65.816406 252.769531 65.765625 C 252.71875 65.738281 252.695312 65.6875 252.695312 65.609375 L 253.140625 63.035156 C 253.140625 63.035156 253.140625 62.90625 253.066406 62.878906 L 250.859375 61.632812 C 250.859375 61.632812 250.785156 61.554688 250.785156 61.476562 C 250.785156 61.425781 250.835938 61.375 250.910156 61.375 L 253.390625 61.035156 C 253.390625 61.035156 253.488281 60.984375 253.511719 60.933594 L 253.960938 58.359375 C 253.960938 58.359375 254.007812 58.257812 254.082031 58.257812 C 254.15625 58.257812 254.207031 58.257812 254.230469 58.335938 "/>
<path style=" stroke:none;fill-rule:nonzero;fill:rgb(0%,58.431375%,25.098041%);fill-opacity:1;" d="M 249.84375 25.027344 L 248.851562 29.703125 C 248.851562 29.703125 248.851562 29.910156 248.976562 29.988281 L 252.917969 32.40625 C 252.917969 32.40625 253.066406 32.5625 253.042969 32.691406 C 253.042969 32.796875 252.941406 32.875 252.820312 32.898438 L 248.28125 33.367188 C 248.28125 33.367188 248.085938 33.445312 248.058594 33.574219 L 247.066406 38.25 C 247.066406 38.25 246.96875 38.433594 246.84375 38.460938 C 246.746094 38.460938 246.648438 38.40625 246.597656 38.304688 L 244.789062 33.914062 C 244.789062 33.914062 244.640625 33.757812 244.539062 33.757812 L 240.003906 34.226562 C 240.003906 34.226562 239.804688 34.171875 239.753906 34.070312 C 239.707031 33.964844 239.753906 33.859375 239.828125 33.78125 L 243.25 30.613281 C 243.25 30.613281 243.351562 30.429688 243.300781 30.328125 L 241.492188 25.9375 C 241.492188 25.9375 241.492188 25.730469 241.566406 25.652344 C 241.640625 25.574219 241.761719 25.574219 241.835938 25.625 L 245.777344 28.042969 C 245.777344 28.042969 245.976562 28.09375 246.050781 28.015625 L 249.472656 24.847656 C 249.472656 24.847656 249.671875 24.769531 249.746094 24.820312 C 249.84375 24.871094 249.894531 24.976562 249.871094 25.105469 "/>
<path style=" stroke:none;fill-rule:nonzero;fill:rgb(0%,58.431375%,25.098041%);fill-opacity:1;" d="M 228.773438 17.105469 L 230.136719 20.089844 C 230.136719 20.089844 230.238281 20.195312 230.3125 20.195312 L 233.433594 19.753906 C 233.433594 19.753906 233.582031 19.78125 233.609375 19.859375 C 233.632812 19.9375 233.609375 20.011719 233.582031 20.066406 L 231.300781 22.351562 C 231.300781 22.351562 231.226562 22.480469 231.277344 22.558594 L 232.640625 25.546875 C 232.640625 25.546875 232.640625 25.703125 232.617188 25.753906 C 232.566406 25.808594 232.492188 25.808594 232.417969 25.78125 L 229.640625 24.195312 C 229.640625 24.195312 229.492188 24.171875 229.445312 24.222656 L 227.164062 26.507812 C 227.164062 26.507812 227.039062 26.5625 226.964844 26.535156 C 226.890625 26.507812 226.867188 26.429688 226.890625 26.351562 L 227.460938 23.078125 C 227.460938 23.078125 227.460938 22.921875 227.386719 22.898438 L 224.609375 21.3125 C 224.609375 21.3125 224.511719 21.207031 224.535156 21.128906 C 224.535156 21.054688 224.609375 21 224.683594 20.976562 L 227.808594 20.535156 C 227.808594 20.535156 227.929688 20.457031 227.957031 20.378906 L 228.527344 17.105469 C 228.527344 17.105469 228.601562 16.972656 228.675781 16.949219 C 228.75 16.949219 228.824219 16.972656 228.847656 17.050781 "/>
<path style=" stroke:none;fill-rule:nonzero;fill:rgb(0%,58.431375%,25.098041%);fill-opacity:1;" d="M 210.53125 19.546875 L 211.644531 21.988281 C 211.644531 21.988281 211.71875 22.066406 211.792969 22.066406 L 214.347656 21.703125 C 214.347656 21.703125 214.472656 21.703125 214.496094 21.78125 C 214.519531 21.859375 214.496094 21.910156 214.472656 21.9375 L 212.585938 23.808594 C 212.585938 23.808594 212.539062 23.910156 212.5625 23.960938 L 213.679688 26.40625 C 213.679688 26.40625 213.679688 26.535156 213.652344 26.5625 C 213.605469 26.613281 213.554688 26.613281 213.503906 26.5625 L 211.222656 25.261719 C 211.222656 25.261719 211.101562 25.261719 211.074219 25.261719 L 209.191406 27.132812 C 209.191406 27.132812 209.09375 27.183594 209.019531 27.132812 C 208.96875 27.105469 208.941406 27.054688 208.941406 26.976562 L 209.414062 24.300781 C 209.414062 24.300781 209.414062 24.171875 209.339844 24.144531 L 207.058594 22.84375 C 207.058594 22.84375 206.984375 22.765625 206.984375 22.691406 C 206.984375 22.636719 207.035156 22.585938 207.109375 22.558594 L 209.664062 22.195312 C 209.664062 22.195312 209.761719 22.144531 209.785156 22.066406 L 210.257812 19.390625 C 210.257812 19.390625 210.308594 19.285156 210.382812 19.261719 C 210.429688 19.261719 210.503906 19.261719 210.53125 19.339844 "/>
</g>
</svg>
